# xmcd
#
# Track frame offsets:
#	150
#	20140
#	41244
#	63421
#	76229
#	94742
#	113276
#	141012
#	164074
#	182406
#	196022
#	213034
#	222066
#	237761
#	254371
#	272473
#	285232
#	297819
#	313131
#
# Disc length: 4353 seconds
#
# Revision: 0
# Processed by: cddbd v1.5.2PL0 Copyright (c) Steve Scherf et al.
# Submitted via: EasyCDDAExtractor 12.0.7.1
#
DISCID=0510ff13
DTITLE=Various Artist - 내 생애 최고의 팝송 CD1
DYEAR=1900
DGENRE=POP
TTITLE0=Nana Mouskouri - Only Love
TTITLE1=Cecilia - The Prayer
TTITLE2=Brian McKnight - One Last Cry
TTITLE3=Boyz II Men - It's So Hard To Say Goodbye
TTITLE4=Lionel Richie - My Love
TTITLE5=Sissel - Spread Your Wide Wing
TTITLE6=Dennis De Young - Desert Moon
TTITLE7=Rockwell - Knife
TTITLE8=Extreme - When I First Kissed You
TTITLE9=Chelsia Chan - One Summer Night
TTITLE10=Rita Coolidge - I Don't Want To Talk About It
TTITLE11=Tim Hardin - Reason To Believe
TTITLE12=Commodores - Sweet Love
TTITLE13=Michael Jackson - In Our Small Way
TTITLE14=Lighthouse Family - Ocean Drive
TTITLE15=Mary Wells - My Guy
TTITLE16=Claudine Longet - Love Is Blue
TTITLE17=The Mamas and Papas - Monday Monday
TTITLE18=The Trogs - Love Is All Around
EXTD=
EXTT0=
EXTT1=
EXTT2=
EXTT3=
EXTT4=
EXTT5=
EXTT6=
EXTT7=
EXTT8=
EXTT9=
EXTT10=
EXTT11=
EXTT12=
EXTT13=
EXTT14=
EXTT15=
EXTT16=
EXTT17=
EXTT18=
PLAYORDER=
